<?xml version="1.0" encoding="UTF-8" standalone="no"?>
<!DOCTYPE svg PUBLIC "-//W3C//DTD SVG 1.1//EN"
 "http://www.w3.org/Graphics/SVG/1.1/DTD/svg11.dtd">
<!-- Generated by graphviz version 2.40.1 (20161225.0304)
 -->
<!-- Title: mygraph Pages: 1 -->
<svg width="1159pt" height="956pt"
 viewBox="0.00 0.00 1158.50 956.00" xmlns="http://www.w3.org/2000/svg" xmlns:xlink="http://www.w3.org/1999/xlink">
<g id="graph0" class="graph" transform="scale(1 1) rotate(0) translate(4 952)">
<title>mygraph</title>
<polygon fill="#ffffff" stroke="transparent" points="-4,4 -4,-952 1154.5,-952 1154.5,4 -4,4"/>
<!-- process() -->
<g id="node1" class="node">
<title>process()</title>
<polygon fill="#d3d3d3" stroke="#000000" points="568,-948 502,-948 502,-912 568,-912 568,-948"/>
<text text-anchor="middle" x="535" y="-926.3" font-family="Times,serif" font-size="14.00" fill="#000000">process()</text>
</g>
<!-- parsing_request() -->
<g id="node2" class="node">
<title>parsing_request()</title>
<polygon fill="none" stroke="#000000" points="590.5,-875 479.5,-875 479.5,-839 590.5,-839 590.5,-875"/>
<text text-anchor="middle" x="535" y="-853.3" font-family="Times,serif" font-size="14.00" fill="#000000">parsing_request()</text>
</g>
<!-- process()&#45;&gt;parsing_request() -->
<g id="edge1" class="edge">
<title>process()&#45;&gt;parsing_request()</title>
<path fill="none" stroke="#000000" d="M535,-911.9551C535,-903.8828 535,-894.1764 535,-885.1817"/>
<polygon fill="#000000" stroke="#000000" points="538.5001,-885.0903 535,-875.0904 531.5001,-885.0904 538.5001,-885.0903"/>
</g>
<!-- processing_upload() -->
<g id="node3" class="node">
<title>processing_upload()</title>
<polygon fill="none" stroke="#000000" points="468.5,-734 341.5,-734 341.5,-698 468.5,-698 468.5,-734"/>
<text text-anchor="middle" x="405" y="-712.3" font-family="Times,serif" font-size="14.00" fill="#000000">processing_upload()</text>
</g>
<!-- parsing_request()&#45;&gt;processing_upload() -->
<g id="edge2" class="edge">
<title>parsing_request()&#45;&gt;processing_upload()</title>
<path fill="none" stroke="#000000" d="M479.3072,-843.1419C458.0708,-836.8092 437.2213,-828.9546 430,-821 411.1039,-800.1853 405.7694,-767.7065 404.591,-744.383"/>
<polygon fill="#000000" stroke="#000000" points="408.0896,-744.2828 404.3082,-734.3858 401.0924,-744.4808 408.0896,-744.2828"/>
<text text-anchor="middle" x="450" y="-809.8" font-family="Times,serif" font-size="14.00" fill="#000000">Upload</text>
</g>
<!-- custom_read_*() -->
<g id="node4" class="node">
<title>custom_read_*()</title>
<polygon fill="none" stroke="#000000" points="536.5,-626 427.5,-626 427.5,-590 536.5,-590 536.5,-626"/>
<text text-anchor="middle" x="482" y="-604.3" font-family="Times,serif" font-size="14.00" fill="#000000">custom_read_*()</text>
</g>
<!-- parsing_request()&#45;&gt;custom_read_*() -->
<g id="edge3" class="edge">
<title>parsing_request()&#45;&gt;custom_read_*()</title>
<path fill="none" stroke="#000000" d="M522.6313,-838.8547C514.1554,-825.43 503.4885,-806.3631 498,-788 482.4895,-736.1054 480.6223,-672.3426 481.0509,-636.3198"/>
<polygon fill="#000000" stroke="#000000" points="484.5548,-636.1393 481.245,-626.0747 477.5561,-636.0066 484.5548,-636.1393"/>
<text text-anchor="middle" x="535.5" y="-766.3" font-family="Times,serif" font-size="14.00" fill="#000000">Custom Read</text>
</g>
<!-- custom_write_*() -->
<g id="node5" class="node">
<title>custom_write_*()</title>
<polygon fill="none" stroke="#000000" points="618.5,-518 505.5,-518 505.5,-482 618.5,-482 618.5,-518"/>
<text text-anchor="middle" x="562" y="-496.3" font-family="Times,serif" font-size="14.00" fill="#000000">custom_write_*()</text>
</g>
<!-- parsing_request()&#45;&gt;custom_write_*() -->
<g id="edge4" class="edge">
<title>parsing_request()&#45;&gt;custom_write_*()</title>
<path fill="none" stroke="#000000" d="M553.7732,-838.8337C568.668,-822.4026 587,-796.7467 587,-770 587,-770 587,-770 587,-608 587,-580.0876 578.9761,-549.1385 572.0199,-527.552"/>
<polygon fill="#000000" stroke="#000000" points="575.3308,-526.4167 568.8314,-518.0497 568.6945,-528.6437 575.3308,-526.4167"/>
<text text-anchor="middle" x="626.5" y="-712.3" font-family="Times,serif" font-size="14.00" fill="#000000">Custom Write</text>
</g>
<!-- building_query() -->
<g id="node6" class="node">
<title>building_query()</title>
<polygon fill="none" stroke="#000000" points="769,-788 661,-788 661,-752 769,-752 769,-788"/>
<text text-anchor="middle" x="715" y="-766.3" font-family="Times,serif" font-size="14.00" fill="#000000">building_query()</text>
</g>
<!-- parsing_request()&#45;&gt;building_query() -->
<g id="edge5" class="edge">
<title>parsing_request()&#45;&gt;building_query()</title>
<path fill="none" stroke="#000000" d="M572.2961,-838.9735C600.1717,-825.5003 638.4624,-806.9932 668.3625,-792.5415"/>
<polygon fill="#000000" stroke="#000000" points="670.2713,-795.5063 677.7517,-788.0034 667.2251,-789.2039 670.2713,-795.5063"/>
<text text-anchor="middle" x="695" y="-809.8" font-family="Times,serif" font-size="14.00" fill="#000000">Read, Write, Options</text>
</g>
<!-- sending_result() -->
<g id="node20" class="node">
<title>sending_result()</title>
<polygon fill="none" stroke="#000000" points="536,-123 432,-123 432,-87 536,-87 536,-123"/>
<text text-anchor="middle" x="484" y="-101.3" font-family="Times,serif" font-size="14.00" fill="#000000">sending_result()</text>
</g>
<!-- processing_upload()&#45;&gt;sending_result() -->
<g id="edge24" class="edge">
<title>processing_upload()&#45;&gt;sending_result()</title>
<path fill="none" stroke="#000000" d="M406.093,-697.6627C407.2773,-676.1828 409,-639.5216 409,-608 409,-608 409,-608 409,-178 409,-157.7301 423.2415,-141.2641 439.3128,-129.1358"/>
<polygon fill="#000000" stroke="#000000" points="441.6264,-131.789 447.8181,-123.1917 437.6165,-126.0513 441.6264,-131.789"/>
</g>
<!-- custom_read_*()&#45;&gt;sending_result() -->
<g id="edge25" class="edge">
<title>custom_read_*()&#45;&gt;sending_result()</title>
<path fill="none" stroke="#000000" d="M477.3547,-589.7925C472.3213,-568.4346 465,-531.8879 465,-500 465,-500 465,-500 465,-178 465,-162.7638 468.9243,-146.2988 473.2059,-132.8689"/>
<polygon fill="#000000" stroke="#000000" points="476.5674,-133.8557 476.4907,-123.2611 469.9438,-131.5911 476.5674,-133.8557"/>
</g>
<!-- custom_write_*()&#45;&gt;sending_result() -->
<g id="edge26" class="edge">
<title>custom_write_*()&#45;&gt;sending_result()</title>
<path fill="none" stroke="#000000" d="M542.6812,-481.818C525.4743,-463.5734 503,-433.7603 503,-402.5 503,-402.5 503,-402.5 503,-178 503,-162.7638 499.0757,-146.2988 494.7941,-132.8689"/>
<polygon fill="#000000" stroke="#000000" points="498.0562,-131.5911 491.5093,-123.2611 491.4326,-133.8557 498.0562,-131.5911"/>
</g>
<!-- building_write_query() -->
<g id="node7" class="node">
<title>building_write_query()</title>
<polygon fill="none" stroke="#000000" points="786.5,-464 643.5,-464 643.5,-428 786.5,-428 786.5,-464"/>
<text text-anchor="middle" x="715" y="-442.3" font-family="Times,serif" font-size="14.00" fill="#000000">building_write_query()</text>
</g>
<!-- building_query()&#45;&gt;building_write_query() -->
<g id="edge6" class="edge">
<title>building_query()&#45;&gt;building_write_query()</title>
<path fill="none" stroke="#000000" d="M715,-751.652C715,-697.7432 715,-539.551 715,-474.4689"/>
<polygon fill="#000000" stroke="#000000" points="718.5001,-474.1467 715,-464.1467 711.5001,-474.1468 718.5001,-474.1467"/>
<text text-anchor="middle" x="731" y="-604.3" font-family="Times,serif" font-size="14.00" fill="#000000">Write</text>
</g>
<!-- building_read_query() -->
<g id="node8" class="node">
<title>building_read_query()</title>
<polygon fill="none" stroke="#000000" points="957,-680 819,-680 819,-644 957,-644 957,-680"/>
<text text-anchor="middle" x="888" y="-658.3" font-family="Times,serif" font-size="14.00" fill="#000000">building_read_query()</text>
</g>
<!-- building_query()&#45;&gt;building_read_query() -->
<g id="edge7" class="edge">
<title>building_query()&#45;&gt;building_read_query()</title>
<path fill="none" stroke="#000000" d="M743.9563,-751.9232C773.1467,-733.7003 818.3378,-705.4885 850.3071,-685.5308"/>
<polygon fill="#000000" stroke="#000000" points="852.3199,-688.4003 858.9492,-680.1357 848.613,-682.4624 852.3199,-688.4003"/>
<text text-anchor="middle" x="842" y="-712.3" font-family="Times,serif" font-size="14.00" fill="#000000">Read</text>
</g>
<!-- building_insert_query() -->
<g id="node9" class="node">
<title>building_insert_query()</title>
<polygon fill="none" stroke="#000000" points="676.5,-377 531.5,-377 531.5,-341 676.5,-341 676.5,-377"/>
<text text-anchor="middle" x="604" y="-355.3" font-family="Times,serif" font-size="14.00" fill="#000000">building_insert_query()</text>
</g>
<!-- building_write_query()&#45;&gt;building_insert_query() -->
<g id="edge8" class="edge">
<title>building_write_query()&#45;&gt;building_insert_query()</title>
<path fill="none" stroke="#000000" d="M692.0007,-427.9735C675.4805,-415.0253 653.0284,-397.4276 634.9378,-383.2485"/>
<polygon fill="#000000" stroke="#000000" points="636.9995,-380.4175 626.9698,-377.0034 632.6813,-385.9269 636.9995,-380.4175"/>
<text text-anchor="middle" x="691" y="-398.8" font-family="Times,serif" font-size="14.00" fill="#000000">INSERT</text>
</g>
<!-- building_update_query() -->
<g id="node10" class="node">
<title>building_update_query()</title>
<polygon fill="none" stroke="#000000" points="845.5,-377 694.5,-377 694.5,-341 845.5,-341 845.5,-377"/>
<text text-anchor="middle" x="770" y="-355.3" font-family="Times,serif" font-size="14.00" fill="#000000">building_update_query()</text>
</g>
<!-- building_write_query()&#45;&gt;building_update_query() -->
<g id="edge9" class="edge">
<title>building_write_query()&#45;&gt;building_update_query()</title>
<path fill="none" stroke="#000000" d="M726.396,-427.9735C734.1393,-415.7252 744.5126,-399.3165 753.1987,-385.5766"/>
<polygon fill="#000000" stroke="#000000" points="756.2333,-387.3262 758.6186,-377.0034 750.3165,-383.5857 756.2333,-387.3262"/>
<text text-anchor="middle" x="773" y="-398.8" font-family="Times,serif" font-size="14.00" fill="#000000">UPDATE</text>
</g>
<!-- building_delete_query() -->
<g id="node11" class="node">
<title>building_delete_query()</title>
<polygon fill="none" stroke="#000000" points="944.5,-323 797.5,-323 797.5,-287 944.5,-287 944.5,-323"/>
<text text-anchor="middle" x="871" y="-301.3" font-family="Times,serif" font-size="14.00" fill="#000000">building_delete_query()</text>
</g>
<!-- building_write_query()&#45;&gt;building_delete_query() -->
<g id="edge10" class="edge">
<title>building_write_query()&#45;&gt;building_delete_query()</title>
<path fill="none" stroke="#000000" d="M783.7923,-427.8624C810.255,-417.3586 838.1384,-401.25 855,-377 863.8544,-364.2658 867.9118,-347.4635 869.7294,-333.2935"/>
<polygon fill="#000000" stroke="#000000" points="873.238,-333.3741 870.7251,-323.0816 866.2711,-332.6947 873.238,-333.3741"/>
<text text-anchor="middle" x="863" y="-398.8" font-family="Times,serif" font-size="14.00" fill="#000000">DELETE</text>
</g>
<!-- building_select_query() -->
<g id="node12" class="node">
<title>building_select_query()</title>
<polygon fill="none" stroke="#000000" points="961,-572 815,-572 815,-536 961,-536 961,-572"/>
<text text-anchor="middle" x="888" y="-550.3" font-family="Times,serif" font-size="14.00" fill="#000000">building_select_query()</text>
</g>
<!-- building_read_query()&#45;&gt;building_select_query() -->
<g id="edge11" class="edge">
<title>building_read_query()&#45;&gt;building_select_query()</title>
<path fill="none" stroke="#000000" d="M888,-643.6793C888,-626.821 888,-601.5651 888,-582.147"/>
<polygon fill="#000000" stroke="#000000" points="891.5001,-582.0501 888,-572.0502 884.5001,-582.0502 891.5001,-582.0501"/>
<text text-anchor="middle" x="913" y="-604.3" font-family="Times,serif" font-size="14.00" fill="#000000">SELECT</text>
</g>
<!-- building_options_query() -->
<g id="node13" class="node">
<title>building_options_query()</title>
<polygon fill="none" stroke="#000000" points="1140.5,-572 985.5,-572 985.5,-536 1140.5,-536 1140.5,-572"/>
<text text-anchor="middle" x="1063" y="-550.3" font-family="Times,serif" font-size="14.00" fill="#000000">building_options_query()</text>
</g>
<!-- building_read_query()&#45;&gt;building_options_query() -->
<g id="edge12" class="edge">
<title>building_read_query()&#45;&gt;building_options_query()</title>
<path fill="none" stroke="#000000" d="M917.2911,-643.9232C946.8189,-625.7003 992.5325,-597.4885 1024.8714,-577.5308"/>
<polygon fill="#000000" stroke="#000000" points="1026.9416,-580.3661 1033.6134,-572.1357 1023.2653,-574.4091 1026.9416,-580.3661"/>
<text text-anchor="middle" x="1049.5" y="-604.3" font-family="Times,serif" font-size="14.00" fill="#000000">SELECT Options</text>
</g>
<!-- setting_writable_columns() -->
<g id="node14" class="node">
<title>setting_writable_columns()</title>
<polygon fill="none" stroke="#000000" points="843,-269 677,-269 677,-233 843,-233 843,-269"/>
<text text-anchor="middle" x="760" y="-247.3" font-family="Times,serif" font-size="14.00" fill="#000000">setting_writable_columns()</text>
</g>
<!-- building_insert_query()&#45;&gt;setting_writable_columns() -->
<g id="edge13" class="edge">
<title>building_insert_query()&#45;&gt;setting_writable_columns()</title>
<path fill="none" stroke="#000000" d="M630.1109,-340.9232C656.2079,-322.8561 696.4877,-294.9701 725.2693,-275.0443"/>
<polygon fill="#000000" stroke="#000000" points="727.5742,-277.7056 733.8039,-269.1357 723.5897,-271.9502 727.5742,-277.7056"/>
</g>
<!-- building_update_query()&#45;&gt;setting_writable_columns() -->
<g id="edge14" class="edge">
<title>building_update_query()&#45;&gt;setting_writable_columns()</title>
<path fill="none" stroke="#000000" d="M768.3036,-340.6793C766.7427,-323.821 764.4042,-298.5651 762.6062,-279.147"/>
<polygon fill="#000000" stroke="#000000" points="766.0785,-278.6848 761.6713,-269.0502 759.1083,-279.3303 766.0785,-278.6848"/>
</g>
<!-- executing_query() -->
<g id="node19" class="node">
<title>executing_query()</title>
<polygon fill="none" stroke="#000000" points="895,-196 779,-196 779,-160 895,-160 895,-196"/>
<text text-anchor="middle" x="837" y="-174.3" font-family="Times,serif" font-size="14.00" fill="#000000">executing_query()</text>
</g>
<!-- building_delete_query()&#45;&gt;executing_query() -->
<g id="edge21" class="edge">
<title>building_delete_query()&#45;&gt;executing_query()</title>
<path fill="none" stroke="#000000" d="M866.2781,-286.9394C862.4585,-272.3707 856.9247,-251.3549 852,-233 849.666,-224.3011 847.096,-214.8368 844.7527,-206.2506"/>
<polygon fill="#000000" stroke="#000000" points="848.0518,-205.0457 842.0378,-196.3231 841.2997,-206.8922 848.0518,-205.0457"/>
</g>
<!-- setting_readable_columns() -->
<g id="node15" class="node">
<title>setting_readable_columns()</title>
<polygon fill="none" stroke="#000000" points="971.5,-464 804.5,-464 804.5,-428 971.5,-428 971.5,-464"/>
<text text-anchor="middle" x="888" y="-442.3" font-family="Times,serif" font-size="14.00" fill="#000000">setting_readable_columns()</text>
</g>
<!-- building_select_query()&#45;&gt;setting_readable_columns() -->
<g id="edge15" class="edge">
<title>building_select_query()&#45;&gt;setting_readable_columns()</title>
<path fill="none" stroke="#000000" d="M888,-535.6793C888,-518.821 888,-493.5651 888,-474.147"/>
<polygon fill="#000000" stroke="#000000" points="891.5001,-474.0501 888,-464.0502 884.5001,-474.0502 891.5001,-474.0501"/>
</g>
<!-- setting_options_columns() -->
<g id="node16" class="node">
<title>setting_options_columns()</title>
<polygon fill="none" stroke="#000000" points="1150.5,-464 989.5,-464 989.5,-428 1150.5,-428 1150.5,-464"/>
<text text-anchor="middle" x="1070" y="-442.3" font-family="Times,serif" font-size="14.00" fill="#000000">setting_options_columns()</text>
</g>
<!-- building_options_query()&#45;&gt;setting_options_columns() -->
<g id="edge16" class="edge">
<title>building_options_query()&#45;&gt;setting_options_columns()</title>
<path fill="none" stroke="#000000" d="M1064.1875,-535.6793C1065.2801,-518.821 1066.9171,-493.5651 1068.1757,-474.147"/>
<polygon fill="#000000" stroke="#000000" points="1071.6759,-474.2556 1068.8301,-464.0502 1064.6905,-473.8028 1071.6759,-474.2556"/>
</g>
<!-- setting_writable_columns()&#45;&gt;executing_query() -->
<g id="edge20" class="edge">
<title>setting_writable_columns()&#45;&gt;executing_query()</title>
<path fill="none" stroke="#000000" d="M779.0337,-232.9551C788.5663,-223.9177 800.2595,-212.8319 810.6408,-202.9899"/>
<polygon fill="#000000" stroke="#000000" points="813.0693,-205.5104 817.9184,-196.0904 808.2533,-200.4305 813.0693,-205.5104"/>
</g>
<!-- applying_filters() -->
<g id="node17" class="node">
<title>applying_filters()</title>
<polygon fill="none" stroke="#000000" points="1015.5,-377 904.5,-377 904.5,-341 1015.5,-341 1015.5,-377"/>
<text text-anchor="middle" x="960" y="-355.3" font-family="Times,serif" font-size="14.00" fill="#000000">applying_filters()</text>
</g>
<!-- setting_readable_columns()&#45;&gt;applying_filters() -->
<g id="edge17" class="edge">
<title>setting_readable_columns()&#45;&gt;applying_filters()</title>
<path fill="none" stroke="#000000" d="M911.9516,-427.837C918.2192,-422.474 924.6986,-416.3332 930,-410 935.9714,-402.8664 941.4723,-394.3976 946.0883,-386.4309"/>
<polygon fill="#000000" stroke="#000000" points="949.2955,-387.8637 951.0757,-377.4194 943.171,-384.4739 949.2955,-387.8637"/>
</g>
<!-- setting_options_columns()&#45;&gt;applying_filters() -->
<g id="edge18" class="edge">
<title>setting_options_columns()&#45;&gt;applying_filters()</title>
<path fill="none" stroke="#000000" d="M1047.2079,-427.9735C1030.8365,-415.0253 1008.5867,-397.4276 990.6591,-383.2485"/>
<polygon fill="#000000" stroke="#000000" points="992.7774,-380.4616 982.7629,-377.0034 988.435,-385.952 992.7774,-380.4616"/>
</g>
<!-- applying_limits() -->
<g id="node18" class="node">
<title>applying_limits()</title>
<polygon fill="none" stroke="#000000" points="1013.5,-269 902.5,-269 902.5,-233 1013.5,-233 1013.5,-269"/>
<text text-anchor="middle" x="958" y="-247.3" font-family="Times,serif" font-size="14.00" fill="#000000">applying_limits()</text>
</g>
<!-- applying_filters()&#45;&gt;applying_limits() -->
<g id="edge19" class="edge">
<title>applying_filters()&#45;&gt;applying_limits()</title>
<path fill="none" stroke="#000000" d="M959.6607,-340.6793C959.3485,-323.821 958.8808,-298.5651 958.5212,-279.147"/>
<polygon fill="#000000" stroke="#000000" points="962.0189,-278.9836 958.3343,-269.0502 955.0201,-279.1133 962.0189,-278.9836"/>
</g>
<!-- applying_limits()&#45;&gt;executing_query() -->
<g id="edge22" class="edge">
<title>applying_limits()&#45;&gt;executing_query()</title>
<path fill="none" stroke="#000000" d="M928.0899,-232.9551C912.2375,-223.3912 892.5828,-211.5334 875.5929,-201.2833"/>
<polygon fill="#000000" stroke="#000000" points="877.3559,-198.2593 866.9854,-196.0904 873.7398,-204.253 877.3559,-198.2593"/>
</g>
<!-- executing_query()&#45;&gt;sending_result() -->
<g id="edge23" class="edge">
<title>executing_query()&#45;&gt;sending_result()</title>
<path fill="none" stroke="#000000" d="M778.7092,-165.9455C714.4487,-152.6565 611.4981,-131.3665 545.8498,-117.7905"/>
<polygon fill="#000000" stroke="#000000" points="546.5465,-114.3606 536.0449,-115.7628 545.1288,-121.2155 546.5465,-114.3606"/>
</g>
<!-- sending_upload_result() -->
<g id="node21" class="node">
<title>sending_upload_result()</title>
<polygon fill="none" stroke="#000000" points="148,-36 0,-36 0,0 148,0 148,-36"/>
<text text-anchor="middle" x="74" y="-14.3" font-family="Times,serif" font-size="14.00" fill="#000000">sending_upload_result()</text>
</g>
<!-- sending_result()&#45;&gt;sending_upload_result() -->
<g id="edge27" class="edge">
<title>sending_result()&#45;&gt;sending_upload_result()</title>
<path fill="none" stroke="#000000" d="M431.8859,-99.4249C382.8007,-93.6541 307.3945,-83.446 243,-69 207.2275,-60.9749 167.9848,-49.3137 136.3262,-39.1669"/>
<polygon fill="#000000" stroke="#000000" points="137.3487,-35.8192 126.7569,-36.0722 135.1947,-42.4795 137.3487,-35.8192"/>
<text text-anchor="middle" x="263" y="-57.8" font-family="Times,serif" font-size="14.00" fill="#000000">Upload</text>
</g>
<!-- sending_custom_result() -->
<g id="node22" class="node">
<title>sending_custom_result()</title>
<polygon fill="none" stroke="#000000" points="317.5,-36 166.5,-36 166.5,0 317.5,0 317.5,-36"/>
<text text-anchor="middle" x="242" y="-14.3" font-family="Times,serif" font-size="14.00" fill="#000000">sending_custom_result()</text>
</g>
<!-- sending_result()&#45;&gt;sending_custom_result() -->
<g id="edge28" class="edge">
<title>sending_result()&#45;&gt;sending_custom_result()</title>
<path fill="none" stroke="#000000" d="M431.8613,-100.0774C396.5525,-95.3391 349.5019,-86.2325 311,-69 296.1968,-62.3745 281.5047,-52.1599 269.5067,-42.6075"/>
<polygon fill="#000000" stroke="#000000" points="271.6082,-39.8042 261.6626,-36.1524 267.1602,-45.2093 271.6082,-39.8042"/>
<text text-anchor="middle" x="373.5" y="-57.8" font-family="Times,serif" font-size="14.00" fill="#000000">Custom Read or Write</text>
</g>
<!-- sending_write_result() -->
<g id="node23" class="node">
<title>sending_write_result()</title>
<polygon fill="none" stroke="#000000" points="474.5,-36 335.5,-36 335.5,0 474.5,0 474.5,-36"/>
<text text-anchor="middle" x="405" y="-14.3" font-family="Times,serif" font-size="14.00" fill="#000000">sending_write_result()</text>
</g>
<!-- sending_result()&#45;&gt;sending_write_result() -->
<g id="edge29" class="edge">
<title>sending_result()&#45;&gt;sending_write_result()</title>
<path fill="none" stroke="#000000" d="M467.6311,-86.9735C456.2972,-74.4919 441.0403,-57.6899 428.4225,-43.7944"/>
<polygon fill="#000000" stroke="#000000" points="430.6615,-41.0538 421.3479,-36.0034 425.4793,-45.7595 430.6615,-41.0538"/>
<text text-anchor="middle" x="466" y="-57.8" font-family="Times,serif" font-size="14.00" fill="#000000">Write</text>
</g>
<!-- sending_select_result() -->
<g id="node24" class="node">
<title>sending_select_result()</title>
<polygon fill="none" stroke="#000000" points="635,-36 493,-36 493,0 635,0 635,-36"/>
<text text-anchor="middle" x="564" y="-14.3" font-family="Times,serif" font-size="14.00" fill="#000000">sending_select_result()</text>
</g>
<!-- sending_result()&#45;&gt;sending_select_result() -->
<g id="edge30" class="edge">
<title>sending_result()&#45;&gt;sending_select_result()</title>
<path fill="none" stroke="#000000" d="M500.5761,-86.9735C512.1607,-74.3752 527.7927,-57.3755 540.6386,-43.4055"/>
<polygon fill="#000000" stroke="#000000" points="543.2528,-45.7335 547.4452,-36.0034 538.1001,-40.9953 543.2528,-45.7335"/>
<text text-anchor="middle" x="546" y="-57.8" font-family="Times,serif" font-size="14.00" fill="#000000">Select</text>
</g>
<!-- sending_download_result() -->
<g id="node25" class="node">
<title>sending_download_result()</title>
<polygon fill="none" stroke="#000000" points="817,-36 653,-36 653,0 817,0 817,-36"/>
<text text-anchor="middle" x="735" y="-14.3" font-family="Times,serif" font-size="14.00" fill="#000000">sending_download_result()</text>
</g>
<!-- sending_result()&#45;&gt;sending_download_result() -->
<g id="edge31" class="edge">
<title>sending_result()&#45;&gt;sending_download_result()</title>
<path fill="none" stroke="#000000" d="M536.0074,-86.9735C575.9721,-73.1212 631.2889,-53.9477 673.4579,-39.3313"/>
<polygon fill="#000000" stroke="#000000" points="674.757,-42.5854 683.0593,-36.0034 672.4645,-35.9714 674.757,-42.5854"/>
<text text-anchor="middle" x="653.5" y="-57.8" font-family="Times,serif" font-size="14.00" fill="#000000">Download</text>
</g>
<!-- sending_options_result() -->
<g id="node26" class="node">
<title>sending_options_result()</title>
<polygon fill="none" stroke="#000000" points="986.5,-36 835.5,-36 835.5,0 986.5,0 986.5,-36"/>
<text text-anchor="middle" x="911" y="-14.3" font-family="Times,serif" font-size="14.00" fill="#000000">sending_options_result()</text>
</g>
<!-- sending_result()&#45;&gt;sending_options_result() -->
<g id="edge32" class="edge">
<title>sending_result()&#45;&gt;sending_options_result()</title>
<path fill="none" stroke="#000000" d="M536.0216,-96.4134C576.8922,-89.5023 635.1993,-79.2784 686,-69 732.2481,-59.6427 783.5783,-48.0975 825.5197,-38.3596"/>
<polygon fill="#000000" stroke="#000000" points="826.4728,-41.7313 835.4184,-36.0544 824.8851,-34.9138 826.4728,-41.7313"/>
<text text-anchor="middle" x="776.5" y="-57.8" font-family="Times,serif" font-size="14.00" fill="#000000">Options</text>
</g>
</g>
</svg>
